<?xml version="1.0" encoding="UTF-8" standalone="no"?>
<svg width="96px" height="103px" viewBox="0 0 350 350" version="1.1" xmlns="http://www.w3.org/2000/svg" xmlns:xlink="http://www.w3.org/1999/xlink" xmlns:sketch="http://www.bohemiancoding.com/sketch/ns" preserveAspectRatio="x200Y200 meet">
    <!-- Generator: Sketch 3.2.2 (9983) - http://www.bohemiancoding.com/sketch -->
    <title>filter-3-icon</title>
    <desc>Created with Sketch.</desc>
    <defs></defs>
    <g id="Page-1" stroke="none" stroke-width="1" fill="none" fill-rule="evenodd" sketch:type="MSPage" transform="scale(.50)">
        <path d="M191.180968,24.383 C200.81454,3.685 122.821403,0 95.9945705,0 C70.3866394,0 -8.82539899,3.685 0.807672288,24.383 C5.24176839,33.9105 78.7382378,135.2475 78.7382378,135.2475 L78.7382378,180.273 L113.910661,206 L113.910661,135.247 C113.910661,135.247 186.746372,33.91 191.180968,24.383 L191.180968,24.383 Z M95.9945705,12.664 C137.147367,12.664 174.970337,18.1455 174.970337,24.3585 C174.970337,30.5715 137.147367,35.607 95.9945705,35.607 C54.8417736,35.607 18.010944,30.5715 18.010944,24.3585 C18.010944,18.1455 54.8417736,12.664 95.9945705,12.664 L95.9945705,12.664 Z" id="filter-3-icon" fill="#000000" sketch:type="MSShapeGroup"></path>
    </g>
</svg>