<?xml version="1.0" encoding="UTF-8" standalone="no"?>
<svg width="96px" height="103px" viewBox="0 0 350 350" version="1.1" xmlns="http://www.w3.org/2000/svg" xmlns:xlink="http://www.w3.org/1999/xlink" xmlns:sketch="http://www.bohemiancoding.com/sketch/ns" preserveAspectRatio="x200Y200 meet">
    <!-- Generator: Sketch 3.2.2 (9983) - http://www.bohemiancoding.com/sketch -->
    <title>login-2-icon</title>
    <desc>Created with Sketch.</desc>
    <defs></defs>
    <g id="Page-1" stroke="none" stroke-width="1" fill="none" fill-rule="evenodd" sketch:type="MSPage">
        <path d="M0,100.069792 L0,57.9282022 L71.4295,57.9282022 L71.4295,36.996049 L113.388,78.9997493 L71.4295,121.00345 L71.4295,100.070294 L0,100.070294 L0,100.069792 Z M127.2235,0 C109.1315,0 92.467,6.12029565 79.1685,16.4033551 L93.4735,30.7243254 C103.2895,23.7917342 114.97,20.0566792 127.2235,20.0566792 C142.923,20.0566792 157.683,26.188006 168.7845,37.3204657 C179.886,48.4539283 186,63.2557576 186,78.9997493 C186,94.743741 179.886,109.546072 168.7845,120.678531 C157.683,131.811493 142.923,137.942819 127.2235,137.942819 C114.97,137.942819 103.2895,134.207764 93.4735,127.275173 L79.168,141.596144 C92.4675,151.879704 109.132,158 127.2235,158 C170.7305,157.999499 206,122.630046 206,78.9997493 C206,35.3694523 170.7305,0 127.2235,0 L127.2235,0 Z" id="login-2-icon" fill="#000000" sketch:type="MSShapeGroup"></path>
    </g>
</svg>