<?xml version="1.0" encoding="UTF-8" standalone="no"?>
<svg width="51px" height="51px" viewBox="0 0 51 51" version="1.1" xmlns="http://www.w3.org/2000/svg" xmlns:xlink="http://www.w3.org/1999/xlink" xmlns:sketch="http://www.bohemiancoding.com/sketch/ns">
    <!-- Generator: Sketch 3.3 (11970) - http://www.bohemiancoding.com/sketch -->
    <title>in</title>
    <desc>Created with Sketch.</desc>
    <defs></defs>
    <g id="Page-1" stroke="none" stroke-width="1" fill="none" fill-rule="evenodd" sketch:type="MSPage">
        <g id="in" sketch:type="MSLayerGroup" fill="#000000">
            <g id="Page-1" sketch:type="MSShapeGroup">
                <g id="in">
                    <g id="Page-1">
                        <g id="noun_74752">
                            <g id="Group">
                                <path d="M25.5,0.265625 C20.6125,0.265625 15.884375,1.646875 11.79375,4.303125 C7.8625,6.853125 4.675,10.465625 2.65625,14.715625 C2.125,15.83125 2.55,17.2125 3.665625,17.796875 C4.834375,18.38125 6.26875,17.903125 6.8,16.734375 C8.446875,13.228125 11.05,10.253125 14.290625,8.18125 C17.6375,6.003125 21.515625,4.8875 25.5,4.8875 C36.86875,4.8875 46.165625,14.13125 46.165625,25.553125 C46.165625,36.975 36.86875,46.165625 25.5,46.165625 C14.875,46.165625 6.109375,38.14375 4.99375,27.8375 L4.99375,27.8375 L19.975,27.8375 L19.975,32.40625 C19.975,33.415625 21.090625,34.053125 21.940625,33.521875 L33.840625,26.66875 C34.690625,26.1375 34.690625,24.915625 33.840625,24.384375 L21.940625,17.478125 C21.090625,16.946875 19.975,17.584375 19.975,18.59375 L19.975,23.1625 L2.284375,23.1625 C1.16875,23.1625 0.265625,24.065625 0.265625,25.18125 L0.265625,25.18125 C0.265625,39.153125 11.475,50.628125 25.446875,50.68125 C39.365625,50.7875 50.734375,39.41875 50.734375,25.5 C50.734375,11.58125 39.41875,0.265625 25.5,0.265625 L25.5,0.265625 L25.5,0.265625 Z" id="Shape"></path>
                            </g>
                        </g>
                    </g>
                </g>
            </g>
        </g>
    </g>
</svg>