<?xml version="1.0" encoding="UTF-8" standalone="no"?>
<svg width="50px" height="50px" viewBox="0 0 50 50" version="1.1" xmlns="http://www.w3.org/2000/svg" xmlns:xlink="http://www.w3.org/1999/xlink" xmlns:sketch="http://www.bohemiancoding.com/sketch/ns">
    <!-- Generator: Sketch 3.3 (11970) - http://www.bohemiancoding.com/sketch -->
    <title>noun_60036</title>
    <desc>Created with Sketch.</desc>
    <defs></defs>
    <g id="Page-1" stroke="none" stroke-width="1" fill="none" fill-rule="evenodd" sketch:type="MSPage">
        <g id="noun_60036" sketch:type="MSLayerGroup" fill="#000000">
            <path d="M0,41.6666667 C0,46.25 2.8125,50 6.25,50 C8.5625,50 10.5625,48.3333333 11.6875,45.8333333 L12.5,45.8333333 C20,45.8333333 24.0625,40.5 27.3125,36.25 C30.3125,32.3333333 32.6875,29.1666667 37.5,29.1666667 L38.3125,29.1666667 C39.375,31.6666667 41.4375,33.3333333 43.75,33.3333333 C47.1875,33.3333333 50,29.5833333 50,25 C50,20.4166667 47.1875,16.6666667 43.75,16.6666667 C41.4375,16.6666667 39.4375,18.3333333 38.3125,20.8333333 L37.5,20.8333333 C32.5625,20.8333333 30.125,17.6666667 27.0625,13.6666667 C23.6875,9.16666667 19.875,4.16666667 12.5,4.16666667 L11.6875,4.16666667 C10.625,1.66666667 8.5625,0 6.25,0 C2.8125,0 0,3.75 0,8.33333333 C0,12.9166667 2.8125,16.6666667 6.25,16.6666667 C8.5625,16.6666667 10.5625,15 11.6875,12.5 L12.5,12.5 C17.3125,12.5 19.6875,15.6666667 22.6875,19.5833333 C24.0625,21.4166667 25.5625,23.3333333 27.4375,25.0833333 C25.75,26.6666667 24.3125,28.5833333 22.9375,30.3333333 C19.875,34.3333333 17.4375,37.5 12.5,37.5 L11.6875,37.5 C10.625,35 8.5625,33.3333333 6.25,33.3333333 C2.8125,33.3333333 0,37.0833333 0,41.6666667 L0,41.6666667 Z M10,8.33333333 C10,11.0833333 8.3125,13.3333333 6.25,13.3333333 C4.1875,13.3333333 2.5,11.0833333 2.5,8.33333333 C2.5,5.58333333 4.1875,3.33333333 6.25,3.33333333 C8.3125,3.33333333 10,5.58333333 10,8.33333333 L10,8.33333333 Z M40,25 C40,22.25 41.6875,20 43.75,20 C45.8125,20 47.5,22.25 47.5,25 C47.5,27.75 45.8125,30 43.75,30 C41.6875,30 40,27.75 40,25 L40,25 Z M2.5,41.6666667 C2.5,38.9166667 4.1875,36.6666667 6.25,36.6666667 C8.3125,36.6666667 10,38.9166667 10,41.6666667 C10,44.4166667 8.3125,46.6666667 6.25,46.6666667 C4.1875,46.6666667 2.5,44.4166667 2.5,41.6666667 L2.5,41.6666667 Z" id="merge" sketch:type="MSShapeGroup"></path>
        </g>
    </g>
</svg>