<?xml version="1.0" encoding="UTF-8" standalone="no"?>
<svg width="50px" height="50px" viewBox="0 0 50 50" version="1.1" xmlns="http://www.w3.org/2000/svg" xmlns:xlink="http://www.w3.org/1999/xlink" xmlns:sketch="http://www.bohemiancoding.com/sketch/ns">
    <!-- Generator: Sketch 3.3 (11970) - http://www.bohemiancoding.com/sketch -->
    <title>noun_91268</title>
    <desc>Created with Sketch.</desc>
    <defs></defs>
    <g id="Page-1" stroke="none" stroke-width="1" fill="none" fill-rule="evenodd" sketch:type="MSPage">
        <g id="noun_91268" sketch:type="MSLayerGroup" fill="#000000">
            <g id="Group" sketch:type="MSShapeGroup">
                <ellipse id="Oval" cx="25" cy="25" rx="4.28571429" ry="3.84615385"></ellipse>
                <path d="M41.8957143,25.000641 C48.3821429,19.7461538 50.5914286,15.1 48.9707143,12.5801282 C48.3171429,11.5647436 46.755,10.3596154 43.0507143,10.3217949 C42.6814286,9.38717949 41.6971429,8.71089744 40.5314286,8.71089744 C39.1521429,8.71089744 38.0264286,9.65192308 37.8771429,10.8544872 C36.4828571,11.1198718 35.0021429,11.4820513 33.4621429,11.9294872 C31.6385714,4.22051282 28.25,0.16025641 25,0.16025641 C21.7528571,0.16025641 18.3671429,4.21474359 16.5421429,11.9108974 C12.9985714,10.8814103 9.76714286,10.3185897 7.12428571,10.3185897 C3.29,10.3185897 1.69285714,11.5480769 1.02857143,12.5801282 C0.134285714,13.9705128 0.405714286,16.0083333 1.91714286,18.4384615 C1.59642857,18.8352564 1.40142857,19.3192308 1.40142857,19.8455128 C1.40142857,21.1737179 2.605,22.2544872 4.08428571,22.2544872 C4.37357143,22.2544872 4.64857143,22.2025641 4.91,22.125641 C5.82642857,23.0564103 6.88928571,24.0179487 8.10357143,25.000641 C1.61785714,30.2557692 -0.591428571,34.9012821 1.02928571,37.4205128 C1.69357143,38.4519231 3.29,39.6820513 7.125,39.6820513 C9.725,39.6820513 12.9742857,39.1076923 16.5378571,38.0705128 C16.83,39.3057692 17.1628571,40.4442308 17.5285714,41.4903846 C17.4578571,41.5442308 17.3828571,41.5916667 17.3178571,41.6525641 C16.8221429,42.1173077 16.5578571,42.7275641 16.5728571,43.3711538 C16.6042857,44.6705128 17.8078571,45.7282051 19.2564286,45.7282051 L19.3135714,45.7275641 C19.3664286,45.7262821 19.4171429,45.7141026 19.47,45.7108974 C21.1307143,48.4339744 23.0892857,49.8397436 25,49.8397436 C28.25,49.8397436 31.6385714,45.7794872 33.4621429,38.0711538 C37.0257143,39.1076923 40.2757143,39.6826923 42.8757143,39.6826923 C46.7107143,39.6826923 48.3071429,38.4525641 48.9714286,37.4211538 C50.5907143,34.900641 48.3814286,30.2551282 41.8957143,25.000641 L41.8957143,25.000641 Z M4.085,21.1275641 C3.29642857,21.1275641 2.65714286,20.5532051 2.65714286,19.8455128 C2.65714286,19.1384615 3.29714286,18.5634615 4.085,18.5634615 C4.87428571,18.5634615 5.51428571,19.1378205 5.51428571,19.8455128 C5.51428571,20.5532051 4.87428571,21.1275641 4.085,21.1275641 L4.085,21.1275641 Z M6.36142857,21.1070513 C6.615,20.7391026 6.76928571,20.3089744 6.76928571,19.8455128 C6.76928571,18.5179487 5.56428571,17.4378205 4.08428571,17.4378205 C3.81714286,17.4378205 3.56428571,17.4839744 3.32071429,17.549359 C2.245,15.8807692 1.90214286,14.4288462 2.575,13.3820513 C3.35214286,12.175 5.47785714,11.9217949 7.12428571,11.9217949 C9.60857143,11.9217949 12.7435714,12.4884615 16.1971429,13.5089744 C15.8128571,15.4679487 15.525,17.6352564 15.355,20.0025641 C13.1671429,21.3115385 11.23,22.6108974 9.53857143,23.8826923 C8.37142857,22.95 7.30071429,22.0179487 6.36142857,21.1070513 L6.36142857,21.1070513 Z M15.2371429,27.9320513 C13.7478571,26.9833333 12.3192857,25.9967949 10.9871429,25.000641 C12.3192857,24.0038462 13.7478571,23.0179487 15.2371429,22.0685897 C15.1992857,23.0166667 15.1792857,23.9935897 15.1792857,25 C15.1792857,26.0064103 15.1985714,26.9839744 15.2371429,27.9320513 L15.2371429,27.9320513 Z M7.12571429,38.0794872 C5.47857143,38.0794872 3.35357143,37.825641 2.57571429,36.6192308 C1.12785714,34.3679487 4.375,30.2423077 9.54,26.1192308 C11.2307143,27.3903846 13.1678571,28.6910256 15.3564286,29.999359 C15.5257143,32.3666667 15.8142857,34.5339744 16.1992857,36.4929487 C12.745,37.5134615 9.60928571,38.0794872 7.12571429,38.0794872 L7.12571429,38.0794872 Z M32.7092857,18.8762821 C31.8135714,18.3724359 30.8807143,17.8692308 29.9107143,17.3660256 C28.9435714,16.8653846 27.9771429,16.3903846 27.0135714,15.9365385 C28.7114286,15.2288462 30.3807143,14.6070513 31.9985714,14.0724359 C32.2971429,15.6160256 32.5371429,17.2314103 32.7092857,18.8762821 L32.7092857,18.8762821 Z M25,1.76282051 C27.9057143,1.76282051 30.27,6.37884615 31.6635714,12.4839744 C29.5121429,13.1826923 27.2735714,14.0333333 25.0092857,15.0217949 C22.7278571,14.0198718 20.4885714,13.1653846 18.3407143,12.4660256 C19.735,6.36987179 22.0971429,1.76282051 25,1.76282051 L25,1.76282051 Z M18.0014286,14.0724359 C19.62,14.6070513 21.29,15.2294872 22.9878571,15.9378205 C22.0207143,16.3916667 21.0521429,16.8666667 20.0885714,17.3660256 C19.1185714,17.8692308 18.1857143,18.3724359 17.29,18.8762821 C17.4635714,17.2314103 17.7028571,15.6166667 18.0014286,14.0724359 L18.0014286,14.0724359 Z M17.2907143,31.125 C18.1864286,31.6282051 19.1192857,32.1320513 20.0892857,32.6346154 C21.0528571,33.1333333 22.0207143,33.6089744 22.9885714,34.0628205 C21.2907143,34.7711538 19.62,35.3935897 18.0021429,35.9282051 C17.7028571,34.3846154 17.4635714,32.7692308 17.2907143,31.125 L17.2907143,31.125 Z M19.2864286,44.6012821 C18.4978571,44.6153846 17.845,44.0551282 17.8278571,43.3467949 C17.8107143,42.6391026 18.4364286,42.0525641 19.2257143,42.0378205 C20.0135714,42.0224359 20.6678571,42.5846154 20.685,43.2929487 C20.7014286,43.999359 20.0757143,44.5858974 19.2864286,44.6012821 L19.2864286,44.6012821 Z M25,48.2371795 C23.5278571,48.2371795 22.195,47.0525641 21.0564286,45.0916667 C21.1007143,45.0544872 21.1521429,45.025 21.1942857,44.9852564 C21.69,44.5205128 21.9542857,43.9108974 21.9392857,43.2685897 C21.9078571,41.9884615 20.7392857,40.9487179 19.2657143,40.9173077 C18.9207143,39.8570513 18.6092857,38.7153846 18.3357143,37.5166667 C20.49,36.8166667 22.7307143,35.9653846 24.9992857,34.974359 C27.2678571,35.9653846 29.5085714,36.8166667 31.6628571,37.5166667 C30.27,43.6211538 27.9057143,48.2371795 25,48.2371795 L25,48.2371795 Z M31.9985714,35.9282051 C30.38,35.3935897 28.71,34.7711538 27.0114286,34.0628205 C27.9785714,33.6089744 28.9471429,33.1346154 29.9114286,32.6346154 C30.8814286,32.1320513 31.8142857,31.6282051 32.71,31.125 C32.5364286,32.7692308 32.2971429,34.3846154 31.9985714,35.9282051 L31.9985714,35.9282051 Z M32.8878571,29.0891026 C31.62,29.8461538 30.3221429,30.5705128 29.0178571,31.2461538 C27.68,31.9391026 26.3364286,32.5846154 24.9992857,33.1858974 C23.6628571,32.5846154 22.3192857,31.9397436 20.9821429,31.2467949 C19.6778571,30.5705128 18.38,29.8461538 17.1121429,29.0891026 C17.0157143,27.7237179 16.965,26.3519231 16.965,25 C16.965,23.6480769 17.0157143,22.2762821 17.1121429,20.9115385 C18.38,20.1538462 19.6778571,19.4294872 20.9821429,18.7538462 C22.3192857,18.0608974 23.6635714,17.4160256 25,16.8141026 C26.3364286,17.4160256 27.68,18.0608974 29.0178571,18.7538462 C30.3221429,19.4301282 31.62,20.1544872 32.8878571,20.9115385 C32.985,22.2769231 33.035,23.6480769 33.035,25 C33.035,26.3519231 32.985,27.7237179 32.8878571,29.0891026 L32.8878571,29.0891026 Z M40.5314286,9.83717949 C41.32,9.83717949 41.9592857,10.4115385 41.9592857,11.1198718 C41.9592857,11.8269231 41.3192857,12.4012821 40.5314286,12.4012821 C39.7421429,12.4012821 39.1021429,11.8269231 39.1021429,11.1198718 C39.1021429,10.4108974 39.7421429,9.83717949 40.5314286,9.83717949 L40.5314286,9.83717949 Z M38.2721429,12.4083333 C38.7485714,13.0788462 39.5807143,13.5275641 40.5314286,13.5275641 C41.695,13.5275641 42.6778571,12.8557692 43.0485714,11.924359 C44.6685714,11.9416667 46.6735714,12.2153846 47.4235714,13.3814103 C48.8714286,15.6333333 45.625,19.7596154 40.46,23.8820513 C38.7692857,22.6102564 36.8321429,21.3102564 34.6435714,20.0019231 C34.4742857,17.6339744 34.1864286,15.4666667 33.8014286,13.5076923 C35.3678571,13.0455128 36.8692857,12.6724359 38.2721429,12.4083333 L38.2721429,12.4083333 Z M34.7628571,22.0685897 C36.2521429,23.0179487 37.6807143,24.0038462 39.0128571,25.000641 C37.6807143,25.9974359 36.2521429,26.9833333 34.7628571,27.9320513 C34.8014286,26.9839744 34.8207143,26.0064103 34.8207143,25 C34.8207143,23.9942308 34.8014286,23.0166667 34.7628571,22.0685897 L34.7628571,22.0685897 Z M47.425,36.6192308 C46.6478571,37.8262821 44.5228571,38.0794872 42.8757143,38.0794872 C40.3914286,38.0794872 37.2564286,37.5128205 33.8028571,36.4923077 C34.1871429,34.5333333 34.475,32.3660256 34.645,29.9987179 C36.8328571,28.6903846 38.77,27.3903846 40.4621429,26.1185897 C45.6257143,30.2423077 48.8728571,34.3673077 47.425,36.6192308 L47.425,36.6192308 Z" id="Shape"></path>
            </g>
        </g>
    </g>
</svg>