<?xml version="1.0" encoding="UTF-8" standalone="no"?>
<svg width="96px" height="103px" viewBox="0 0 350 350" version="1.1" xmlns="http://www.w3.org/2000/svg" xmlns:xlink="http://www.w3.org/1999/xlink" xmlns:sketch="http://www.bohemiancoding.com/sketch/ns" preserveAspectRatio="x200Y200 meet">
    <!-- Generator: Sketch 3.2.2 (9983) - http://www.bohemiancoding.com/sketch -->
    <title>logout-2-icon</title>
    <desc>Created with Sketch.</desc>
    <defs></defs>
    <g id="Page-1" stroke="none" stroke-width="1" fill="none" fill-rule="evenodd" sketch:type="MSPage">
        <path d="M89.112,100.07011 L89.112,57.928386 L164.0415,57.928386 L164.0415,36.9961664 L206,79 L164.0415,121.003834 L164.0415,100.070611 L89.112,100.070611 L89.112,100.07011 Z M125.1725,115.140245 C114.283,129.143863 97.564,137.906152 78.777,137.906152 C63.087,137.906152 48.3365,131.778316 37.242,120.652339 C26.147,109.526363 20.037,94.7340133 20.037,79 C20.037,63.2654853 26.147,48.4726346 37.2415,37.3471594 C48.336,26.2211827 63.087,20.0938478 78.777,20.0938478 C97.6,20.0938478 114.3035,28.8837153 125.1725,42.8587523 L148.8425,42.8587523 C135.7615,17.4057428 109.297,0 78.777,0 C35.27,-4.27535187e-14 0,35.3690631 0,79 C0,122.628931 35.27,158 78.777,158 C109.297,158 135.7615,140.593254 148.8425,115.140245 L125.1725,115.140245 L125.1725,115.140245 Z" id="logout-2-icon" fill="#000000" sketch:type="MSShapeGroup"></path>
    </g>
</svg>