<?xml version="1.0" encoding="UTF-8" standalone="no"?>
<svg width="49px" height="49px" viewBox="0 0 49 49" version="1.1" xmlns="http://www.w3.org/2000/svg" xmlns:xlink="http://www.w3.org/1999/xlink" xmlns:sketch="http://www.bohemiancoding.com/sketch/ns">
    <!-- Generator: Sketch 3.3 (11970) - http://www.bohemiancoding.com/sketch -->
    <title>noun_20940</title>
    <desc>Created with Sketch.</desc>
    <defs></defs>
    <g id="Page-1" stroke="none" stroke-width="1" fill="none" fill-rule="evenodd" sketch:type="MSPage">
        <g id="noun_20940" sketch:type="MSLayerGroup" fill="#000000">
            <g id="twitter" sketch:type="MSShapeGroup">
                <path d="M47.6444444,5.81052632 C48.0077778,4.35526316 47.5922222,2.78157895 46.5855556,1.83421053 C46.0144444,1.29342105 45.3233333,1.02105263 44.6222222,1.02105263 C44.0688889,1.02105263 43.5155556,1.19210526 43.0188889,1.54342105 C42.0322222,2.22894737 41,2.77894737 39.9222222,3.16710526 C37.8622222,1.30131579 35.3077778,0.263157895 32.6822222,0.263157895 C26.6644444,0.263157895 21.6788889,5.57894737 20.8933333,12.4526316 C16.0955556,11.2368421 11.7244444,8.10657895 8.57555556,3.53289474 C7.97555556,2.65657895 7.07555556,2.15657895 6.13555556,2.15657895 C6.05666667,2.15657895 5.97333333,2.16315789 5.88888889,2.16973684 C4.85777778,2.26578947 3.93666667,2.95394737 3.41555556,4.00921053 C2.35777778,6.15526316 1.80111111,8.60263158 1.80111111,11.0960526 C1.80111111,12.7802632 2.05333333,14.4184211 2.52,15.9486842 C2.01777778,16.625 1.72666667,17.5013158 1.72666667,18.4276316 C1.72666667,22.1223684 2.90444444,25.5197368 4.86666667,28.0723684 C4.74555556,28.7092105 4.76444444,29.3828947 4.94111111,30.0276316 C5.62,32.5460526 6.86222222,34.7131579 8.46888889,36.3671053 C7.42555556,36.6473684 6.34555556,36.7907895 5.25,36.7907895 C4.68222222,36.7907895 4.10777778,36.7473684 3.52888889,36.6697368 C3.40666667,36.6513158 3.28444444,36.6421053 3.16,36.6421053 C1.84222222,36.6421053 0.648888889,37.6184211 0.201111111,39.1223684 C-0.295555556,40.7539474 0.23,42.5789474 1.46111111,43.5171053 C5.98444444,46.9473684 11.2111111,48.7618421 16.5744444,48.7618421 C33.9688889,48.7618421 44.4222222,32.1828947 44.61,16 C46.0255556,14.5723684 47.27,12.9289474 48.3255556,11.0947368 C48.7244444,10.4710526 48.9611111,9.69605263 48.9611111,8.84736842 C48.9611111,7.59868421 48.4411111,6.49078947 47.6444444,5.81052632 L47.6444444,5.81052632 Z M41.4355556,14.2118421 C41.4555556,14.6552632 41.4633333,15.1026316 41.4633333,15.5513158 C41.4633333,29.2407895 32.6644444,45.025 16.5744444,45.025 C11.6355556,45.025 7.03666667,43.3105263 3.16333333,40.3710526 C3.84444444,40.4605263 4.54444444,40.5171053 5.25,40.5171053 C9.34888889,40.5171053 13.12,38.8592105 16.1155556,36.0789474 C12.2833333,35.9986842 9.05555556,33 7.94111111,28.8855263 C8.47555556,29.0065789 9.02444444,29.0736842 9.58333333,29.0736842 C10.3833333,29.0736842 11.1566667,28.9447368 11.8888889,28.7092105 C7.88666667,27.7526316 4.87,23.5710526 4.87,18.5473684 L4.87,18.4184211 C6.05,19.1921053 7.4,19.6578947 8.83333333,19.7105263 C6.48666667,17.8526316 4.94444444,14.6789474 4.94444444,11.0868421 C4.94444444,9.18947368 5.37555556,7.41184211 6.12888889,5.88157895 C10.44,12.1486842 16.8877778,16.2710526 24.1588889,16.7026316 C24.0077778,15.9473684 23.9344444,15.1526316 23.9344444,14.3407895 C23.9344444,8.625 27.85,3.98684211 32.6788889,3.98684211 C35.1966667,3.98684211 37.4711111,5.24473684 39.0666667,7.25394737 C41.0566667,6.79210526 42.9311111,5.93026316 44.6211111,4.74210526 C43.9666667,7.15921053 42.5788889,9.18947368 40.7755556,10.4710526 C42.5433333,10.2236842 44.2266667,9.66710526 45.7977778,8.83947368 C44.6277778,10.9276316 43.1466667,12.7513158 41.4355556,14.2118421 L41.4355556,14.2118421 Z" id="Shape"></path>
            </g>
        </g>
    </g>
</svg>