<?xml version="1.0" encoding="UTF-8" standalone="no"?>
<svg width="50px" height="51px" viewBox="0 0 50 51" version="1.1" xmlns="http://www.w3.org/2000/svg" xmlns:xlink="http://www.w3.org/1999/xlink" xmlns:sketch="http://www.bohemiancoding.com/sketch/ns">
    <!-- Generator: Sketch 3.3 (11970) - http://www.bohemiancoding.com/sketch -->
    <title>filter</title>
    <desc>Created with Sketch.</desc>
    <defs></defs>
    <g id="Page-1" stroke="none" stroke-width="1" fill="none" fill-rule="evenodd" sketch:type="MSPage">
        <g id="filter" sketch:type="MSLayerGroup" transform="translate(-0.500000, 0.798204)" fill="#000000">
            <g id="Page-1" sketch:type="MSShapeGroup">
                <g id="filter">
                    <g id="Page-1">
                        <g id="filter">
                            <g id="Page-1">
                                <path d="M49.7903254,5.91820388 C52.2565471,0.894417479 32.2900837,0 25.4223389,0 C18.8666361,0 -1.41186945,0.894417479 1.05422401,5.91820388 C2.18936514,8.23070389 21.0046689,32.8270631 21.0046689,32.8270631 L21.0046689,43.7555825 L30.0089086,50 L30.0089086,32.8269417 C30.0089086,32.8269417 48.6550564,8.2305825 49.7903254,5.91820388 L49.7903254,5.91820388 L49.7903254,5.91820388 Z M25.4223389,3.07378641 C35.9575709,3.07378641 45.6403581,4.40424757 45.6403581,5.91225728 C45.6403581,7.42026701 35.9575709,8.64247576 25.4223389,8.64247576 C14.8871066,8.64247576 5.45831017,7.42026701 5.45831017,5.91225728 C5.45831017,4.40424757 14.8871066,3.07378641 25.4223389,3.07378641 L25.4223389,3.07378641 L25.4223389,3.07378641 Z" id="filter-3-icon"></path>
                            </g>
                        </g>
                    </g>
                </g>
            </g>
        </g>
    </g>
</svg>