<?xml version="1.0" encoding="UTF-8" standalone="no"?>
<svg width="56px" height="70px" viewBox="0 0 56 70" version="1.1" xmlns="http://www.w3.org/2000/svg" xmlns:xlink="http://www.w3.org/1999/xlink" xmlns:sketch="http://www.bohemiancoding.com/sketch/ns">
    <!-- Generator: Sketch 3.2.2 (9983) - http://www.bohemiancoding.com/sketch -->
    <title>Slice 1</title>
    <desc>Created with Sketch.</desc>
    <defs></defs>
    <g id="Page-1" stroke="none" stroke-width="1" fill="none" fill-rule="evenodd" sketch:type="MSPage">
        <g id="join2" sketch:type="MSLayerGroup" transform="translate(4.000000, 12.000000)" fill="#000000">
            <g id="Page-1" sketch:type="MSShapeGroup">
                <g id="Shape-+-Shape-2" transform="translate(13.000000, 0.000000)">
                    <path d="M30,8.03571429 L42,8.03571429 L42,12.8571429 L60,6.42857143 L42,0 L42,4.82142857 L30,4.82142857 C23.373,4.82142857 18,7.69982143 18,11.25 L18,17.6785714 C18,19.4544643 15.315,20.8928571 12,20.8928571 L3,20.8928571 C1.344,20.8928571 0,21.6128571 0,22.5 C0,23.3871429 1.344,24.1071429 3,24.1071429 L3,24.1071429 L12,24.1071429 C18.627,24.1071429 24,21.22875 24,17.6785714 L24,11.25 C24,9.47410714 26.688,8.03571429 30,8.03571429 L30,8.03571429 L30,8.03571429 Z" id="Shape"></path>
                    <path d="M30,28.9285723 L42,28.9285723 L42,33.7500009 L60,27.3214295 L42,20.892858 L42,25.7142866 L30,25.7142866 C23.373,25.7142866 18,28.5926795 18,32.142858 L18,38.5714295 C18,40.3473223 15.315,41.7857152 12,41.7857152 L3,41.7857152 C1.344,41.7857152 0,42.5057152 0,43.392858 C0,44.2800009 1.344,45.0000009 3,45.0000009 L3,45.0000009 L12,45.0000009 C18.627,45.0000009 24,42.121608 24,38.5714295 L24,32.142858 C24,30.3669652 26.688,28.9285723 30,28.9285723 L30,28.9285723 L30,28.9285723 Z" id="Shape-2" transform="translate(30.000000, 32.946429) scale(1, -1) translate(-30.000000, -32.946429) "></path>
                </g>
                <path d="M0.343881406,23 C6.17352291,25.1968197 11.1703585,27.079808 17,29.2766277 L17,16.7233723 C11.1703585,18.920192 6.17352291,20.8031803 0.343881406,23 L0.343881406,23 L0.343881406,23 Z" id="Line-decoration-1" stroke="#000000" transform="translate(8.671941, 23.000000) rotate(359.000000) translate(-8.671941, -23.000000) "></path>
            </g>
        </g>
    </g>
</svg>