<?xml version="1.0" encoding="UTF-8" standalone="no"?>
<svg width="204px" height="227px" viewBox="0 0 204 227" version="1.1" xmlns="http://www.w3.org/2000/svg" xmlns:xlink="http://www.w3.org/1999/xlink" xmlns:sketch="http://www.bohemiancoding.com/sketch/ns">
    <!-- Generator: Sketch 3.2.2 (9983) - http://www.bohemiancoding.com/sketch -->
    <title>Line + Line + Line 2</title>
    <desc>Created with Sketch.</desc>
    <defs></defs>
    <g id="Page-1" stroke="none" stroke-width="1" fill="none" fill-rule="evenodd" sketch:type="MSPage">
        <g id="Line-+-Line-+-Line-2" sketch:type="MSLayerGroup" transform="translate(9.000000, 9.000000)" stroke="#000000" stroke-width="20" stroke-linecap="round">
            <path d="M107.5,104.5 L157.5,104.5" id="Line" sketch:type="MSShapeGroup"></path>
            <path id="Line-decoration-1" d="M157.5,104.5 C153.72,103.45 150.48,102.55 146.7,101.5 C146.7,103.6 146.7,105.4 146.7,107.5 C150.48,106.45 153.72,105.55 157.5,104.5 C157.5,104.5 157.5,104.5 157.5,104.5 Z"></path>
            <g id="Line-+-Line-2" transform="translate(54.000000, 104.500000) rotate(-90.000000) translate(-54.000000, -104.500000) translate(-50.000000, 51.000000)" sketch:type="MSShapeGroup">
                <path d="M103.016456,1.6202629 C103.016456,1.6202629 100.399271,104.983544 208.625833,104.983544 M103.016456,1.6202629 C103.016456,1.6202629 100.399271,104.983544 208.625833,104.983544" id="Line" transform="translate(155.818359, 53.301904) rotate(90.000000) translate(-155.818359, -53.301904) "></path>
                <path d="M-0.346825401,1.6202629 C-0.346825401,1.6202629 -2.96401065,104.983544 105.262552,104.983544 M-0.346825401,1.6202629 C-0.346825401,1.6202629 -2.96401065,104.983544 105.262552,104.983544" id="Line-2" transform="translate(52.455078, 53.301904) scale(-1, 1) rotate(90.000000) translate(-52.455078, -53.301904) "></path>
            </g>
        </g>
    </g>
</svg>