<?xml version="1.0" encoding="UTF-8" standalone="no"?>
<svg width="60px" height="45px" viewBox="0 0 60 45" version="1.1" xmlns="http://www.w3.org/2000/svg" xmlns:xlink="http://www.w3.org/1999/xlink" xmlns:sketch="http://www.bohemiancoding.com/sketch/ns">
    <!-- Generator: Sketch 3.2.2 (9983) - http://www.bohemiancoding.com/sketch -->
    <title>Shape + Shape 2</title>
    <desc>Created with Sketch.</desc>
    <defs></defs>
    <g id="Page-1" stroke="none" stroke-width="1" fill="none" fill-rule="evenodd" sketch:type="MSPage">
        <g id="Shape-+-Shape-2" sketch:type="MSLayerGroup" fill="#000000">
            <path d="M30,8.03571429 L42,8.03571429 L42,12.8571429 L60,6.42857143 L42,0 L42,4.82142857 L30,4.82142857 C23.373,4.82142857 18,7.69982143 18,11.25 L18,17.6785714 C18,19.4544643 15.315,20.8928571 12,20.8928571 L3,20.8928571 C1.344,20.8928571 0,21.6128571 0,22.5 C0,23.3871429 1.344,24.1071429 3,24.1071429 L3,24.1071429 L12,24.1071429 C18.627,24.1071429 24,21.22875 24,17.6785714 L24,11.25 C24,9.47410714 26.688,8.03571429 30,8.03571429 L30,8.03571429 Z" id="Shape" sketch:type="MSShapeGroup"></path>
            <path d="M30,28.9285714 L42,28.9285714 L42,33.75 L60,27.3214286 L42,20.8928571 L42,25.7142857 L30,25.7142857 C23.373,25.7142857 18,28.5926786 18,32.1428571 L18,38.5714286 C18,40.3473214 15.315,41.7857143 12,41.7857143 L3,41.7857143 C1.344,41.7857143 0,42.5057143 0,43.3928571 C0,44.28 1.344,45 3,45 L3,45 L12,45 C18.627,45 24,42.1216071 24,38.5714286 L24,32.1428571 C24,30.3669643 26.688,28.9285714 30,28.9285714 L30,28.9285714 Z" id="Shape-2" sketch:type="MSShapeGroup" transform="translate(30.000000, 32.946429) scale(1, -1) translate(-30.000000, -32.946429) "></path>
        </g>
    </g>
</svg>