<?xml version="1.0" encoding="UTF-8" standalone="no"?>
<svg width="206px" height="167px" viewBox="0 0 206 167" version="1.1" xmlns="http://www.w3.org/2000/svg" xmlns:xlink="http://www.w3.org/1999/xlink" xmlns:sketch="http://www.bohemiancoding.com/sketch/ns">
    <!-- Generator: Sketch 3.2.2 (9983) - http://www.bohemiancoding.com/sketch -->
    <title>twitter</title>
    <desc>Created with Sketch.</desc>
    <defs></defs>
    <g id="Page-1" stroke="none" stroke-width="1" fill="none" fill-rule="evenodd" sketch:type="MSPage">
        <path d="M206,19.7682305 C198.421,23.1219566 190.2755,25.388864 181.7265,26.4068526 C190.451,21.1892248 197.1535,12.9276067 200.3085,3.08239553 C192.142,7.9139757 183.0975,11.4223204 173.4705,13.3126568 C165.7615,5.11887141 154.7775,0 142.6215,0 C115.3415,0 95.2875,25.395348 101.453,51.7657904 C66.328,50.0081267 35.186,33.2230366 14.3415,7.71746052 C3.2705,26.6622225 8.599,51.455057 27.4205,64.0035989 C20.4935,63.7851379 13.975,61.8883174 8.278,58.7296102 C7.8195,78.2624215 21.851,96.5268619 42.1755,100.600811 C36.2275,102.215328 29.7125,102.584916 23.0905,101.322531 C28.4675,118.071211 44.0765,130.26014 62.5705,130.599802 C44.802,144.490034 22.423,150.694227 0,148.058231 C18.703,160.019721 40.9185,167 64.7855,167 C143.2515,167 187.583,100.887604 184.911,41.5918901 C193.1695,35.6480539 200.334,28.2228723 206,19.7682305 L206,19.7682305 Z" id="twitter" fill="#000000" sketch:type="MSShapeGroup"></path>
    </g>
</svg>