<?xml version="1.0" encoding="UTF-8" standalone="no"?>
<svg width="58px" height="72px" viewBox="0 0 58 72" version="1.1" xmlns="http://www.w3.org/2000/svg" xmlns:xlink="http://www.w3.org/1999/xlink" xmlns:sketch="http://www.bohemiancoding.com/sketch/ns">
    <!-- Generator: Sketch 3.2.2 (9983) - http://www.bohemiancoding.com/sketch -->
    <title>filter</title>
    <desc>Created with Sketch.</desc>
    <defs></defs>
    <g id="Page-1" stroke="none" stroke-width="1" fill="none" fill-rule="evenodd" sketch:type="MSPage">
        <g id="filter" sketch:type="MSLayerGroup" fill="#000000">
            <g id="Page-1" sketch:type="MSShapeGroup">
                <g id="filter">
                    <g id="Page-1">
                        <path d="M57.752584,8.52221359 C60.6627256,1.28796117 37.1022988,0 28.9983599,0 C21.2626306,0 -2.66600595,1.28796117 0.243984337,8.52221359 C1.58345087,11.8522136 23.7855093,47.2709709 23.7855093,47.2709709 L23.7855093,63.0080388 L34.4105122,72 L34.4105122,47.270796 C34.4105122,47.270796 56.4129666,11.8520388 57.752584,8.52221359 L57.752584,8.52221359 L57.752584,8.52221359 Z M28.9983599,4.42625243 C41.4299337,4.42625243 52.8556226,6.3421165 52.8556226,8.51365048 C52.8556226,10.6851845 41.4299337,12.4451651 28.9983599,12.4451651 C16.5667858,12.4451651 5.440806,10.6851845 5.440806,8.51365048 C5.440806,6.3421165 16.5667858,4.42625243 28.9983599,4.42625243 L28.9983599,4.42625243 L28.9983599,4.42625243 Z" id="filter-3-icon"></path>
                    </g>
                </g>
            </g>
        </g>
    </g>
</svg>