<?xml version="1.0" encoding="UTF-8" standalone="no"?>
<svg width="73px" height="47px" viewBox="0 0 73 47" version="1.1" xmlns="http://www.w3.org/2000/svg" xmlns:xlink="http://www.w3.org/1999/xlink" xmlns:sketch="http://www.bohemiancoding.com/sketch/ns">
    <!-- Generator: Sketch 3.2.2 (9983) - http://www.bohemiancoding.com/sketch -->
    <title>join</title>
    <desc>Created with Sketch.</desc>
    <defs></defs>
    <g id="Page-1" stroke="none" stroke-width="1" fill="none" fill-rule="evenodd" sketch:type="MSPage">
        <g id="join" sketch:type="MSLayerGroup" transform="translate(17.000000, 23.500000) rotate(180.000000) translate(-17.000000, -23.500000) translate(-37.000000, -0.000000)" fill="#000000">
            <g id="Page-1" transform="translate(0.000000, 0.000000)" sketch:type="MSShapeGroup">
                <g id="join2">
                    <g id="Page-1">
                        <g id="join2">
                            <g id="Page-1">
                                <g id="Shape-+-Shape-2" transform="translate(15.000000, 0.000000)">
                                    <path d="M46.0015528,8.30062795 L64.4021739,8.30062795 L64.4021739,13.2810048 L92.0031056,6.64050235 L64.4021739,0 L64.4021739,4.98037676 L46.0015528,4.98037676 C35.8398098,4.98037676 27.6009317,7.9536617 27.6009317,11.6208791 L27.6009317,18.2613814 C27.6009317,20.0958202 23.4837926,21.5816326 18.4006211,21.5816326 L4.60015528,21.5816326 C2.06086957,21.5816326 0,22.3253689 0,23.2417583 C0,24.1581476 2.06086957,24.9018838 4.60015528,24.9018838 L4.60015528,24.9018838 L18.4006211,24.9018838 C28.5623641,24.9018838 36.8012422,21.9285989 36.8012422,18.2613814 L36.8012422,11.6208791 C36.8012422,9.78644034 40.9229813,8.30062795 46.0015528,8.30062795 L46.0015528,8.30062795 L46.0015528,8.30062795 Z" id="Shape"></path>
                                    <path d="M46.0015528,29.8822608 L64.4021739,29.8822608 L64.4021739,34.8626376 L92.0031056,28.2221353 L64.4021739,21.5816328 L64.4021739,26.5620096 L46.0015528,26.5620096 C35.8398098,26.5620096 27.6009317,29.5352946 27.6009317,33.202512 L27.6009317,39.8430144 C27.6009317,41.6774531 23.4837926,43.1632655 18.4006211,43.1632655 L4.60015528,43.1632655 C2.06086957,43.1632655 0,43.9070018 0,44.8233911 C0,45.7397804 2.06086957,46.4835168 4.60015528,46.4835168 L4.60015528,46.4835168 L18.4006211,46.4835168 C28.5623641,46.4835168 36.8012422,43.5102318 36.8012422,39.8430144 L36.8012422,33.202512 C36.8012422,31.3680732 40.9229813,29.8822608 46.0015528,29.8822608 L46.0015528,29.8822608 L46.0015528,29.8822608 Z" id="Shape-2" transform="translate(46.001553, 34.032575) scale(1, -1) translate(-46.001553, -34.032575) "></path>
                                </g>
                                <path d="M0.630592854,23.9083781 C8.10988536,26.0721794 14.5207075,27.9268662 22,30.0906676 L21.720714,17.1255435 C14.3391716,19.4995356 8.01213525,21.5343859 0.630592854,23.9083781 L0.630592854,23.9083781 L0.630592854,23.9083781 Z" id="Line-decoration-1" stroke="#000000" stroke-width="1.2"></path>
                            </g>
                        </g>
                    </g>
                </g>
            </g>
        </g>
    </g>
</svg>