<?xml version="1.0" encoding="UTF-8" standalone="no"?>
<svg width="67px" height="55px" viewBox="0 0 67 55" version="1.1" xmlns="http://www.w3.org/2000/svg" xmlns:xlink="http://www.w3.org/1999/xlink" xmlns:sketch="http://www.bohemiancoding.com/sketch/ns">
    <!-- Generator: Sketch 3.2.2 (9983) - http://www.bohemiancoding.com/sketch -->
    <title>twitter</title>
    <desc>Created with Sketch.</desc>
    <defs></defs>
    <g id="Page-1" stroke="none" stroke-width="1" fill="none" fill-rule="evenodd" sketch:type="MSPage">
        <g id="twitter" sketch:type="MSLayerGroup" fill="#000000">
            <g id="Page-1" sketch:type="MSShapeGroup">
                <g id="twitter">
                    <g id="Page-1">
                        <g id="twitter">
                            <g id="Page-1">
                                <path d="M67,6.51049507 C64.5349855,7.61501565 61.8857209,8.36160192 59.1052209,8.69686762 C61.9428011,6.97848722 64.1227405,4.25759503 65.1488809,1.01516021 C62.4927863,2.60639918 59.5511286,3.76184205 56.4200172,4.38440792 C53.9127209,1.68585586 50.340255,0 46.3866042,0 C37.5139828,0 30.9915656,8.36373735 32.9968495,17.0486136 C21.5726991,16.4697423 11.4439903,10.9417186 4.66446844,2.54167861 C1.06370631,8.78097149 2.79676214,16.9462762 8.91831797,21.0790296 C6.66536164,21.0070814 4.54526698,20.3823799 2.69235923,19.3420872 C2.54323544,25.775049 7.10687863,31.790284 13.7172743,33.1320036 C11.7827306,33.6637309 9.66377428,33.7854514 7.51001698,33.3696958 C9.25884709,38.885728 14.3355606,42.900046 20.3505995,43.0119108 C14.5715242,47.5865383 7.29291748,49.6298353 0,48.7616929 C6.08301458,52.7011058 13.3084442,55 21.0710122,55 C46.5915072,55 61.010005,33.2264564 60.1409564,13.6979279 C62.8269733,11.740377 65.1571748,9.29495794 67,6.51049507 L67,6.51049507 L67,6.51049507 Z" id="twitter"></path>
                            </g>
                        </g>
                    </g>
                </g>
            </g>
        </g>
    </g>
</svg>